<?xml version="1.0" encoding="iso-8859-1"?>
<!-- Generator: Adobe Illustrator 19.0.0, SVG Export Plug-In . SVG Version: 6.00 Build 0)  -->
<svg version="1.1" id="Layer_1" xmlns="http://www.w3.org/2000/svg" xmlns:xlink="http://www.w3.org/1999/xlink" x="0px" y="0px"
	 viewBox="0 0 290.625 290.625" style="enable-background:new 0 0 290.625 290.625;" xml:space="preserve">
<g>
	<g>
		<path style="fill:#F9BA48;" d="M248.316,0H42.31c-7.823,0-14.184,6.361-14.184,14.184v131.002c0,7.828,6.361,14.189,14.184,14.189
			h37.378V150v-28.125c0-10.355,8.395-18.75,18.75-18.75s18.75,8.395,18.75,18.75V150v9.375h131.128
			c7.823,0,14.184-6.361,14.184-14.184V14.184C262.501,6.361,256.14,0,248.316,0z M84.376,79.688
			c-12.942,0-23.438-10.495-23.438-23.438s10.495-23.438,23.438-23.438s23.438,10.495,23.438,23.438S97.318,79.688,84.376,79.688z"
			/>
		<path style="fill:#333333;" d="M84.376,84.375c-15.511,0-28.125-12.614-28.125-28.125s12.614-28.125,28.125-28.125
			s28.125,12.614,28.125,28.125S99.887,84.375,84.376,84.375z M84.376,37.5c-10.341,0-18.75,8.409-18.75,18.75S74.035,75,84.376,75
			s18.75-8.409,18.75-18.75S94.717,37.5,84.376,37.5z"/>
		<rect x="131.251" y="28.125" style="fill:#333333;" width="103.125" height="9.375"/>
		<rect x="131.251" y="51.563" style="fill:#333333;" width="103.125" height="9.375"/>
		<rect x="131.251" y="75" style="fill:#333333;" width="103.125" height="9.375"/>
		<rect x="159.376" y="98.438" style="fill:#333333;" width="75" height="9.375"/>
		<path style="fill:#333333;" d="M147.657,290.625c-40.064,0-72.656-32.592-72.656-72.656v-96.094
			c0-12.923,10.514-23.438,23.438-23.438s23.438,10.514,23.438,23.438v42.188h4.688c18.089,0,32.813,14.723,32.813,32.813
			s-14.723,32.813-32.813,32.813v-9.375c12.923,0,23.438-10.514,23.438-23.438s-10.514-23.438-23.438-23.438h-14.064v-51.563
			c0-7.753-6.309-14.063-14.063-14.063s-14.063,6.309-14.063,14.063v96.094c0,34.894,28.387,63.281,63.281,63.281
			s63.281-28.387,63.281-63.281v-58.594h9.375v58.594C220.314,258.033,187.721,290.625,147.657,290.625z"/>
	</g>
</g>
<g>
</g>
<g>
</g>
<g>
</g>
<g>
</g>
<g>
</g>
<g>
</g>
<g>
</g>
<g>
</g>
<g>
</g>
<g>
</g>
<g>
</g>
<g>
</g>
<g>
</g>
<g>
</g>
<g>
</g>
</svg>
